:SAMPLES-PER-SECOND 30
:FULLY-SPECIFIED
:DEGREES
167
root  -55.8708 38.6603 12.1495 178.802 -72.541 172.538
RightUpLeg  -19.5444 -4.79274 -9.20189
RightLeg  57.0674 1.63086 2.3017
RightFoot  -3.35916 -0.713948 9.88097
RightToes  -2.21189e-009 0 -3.6325e-017
Spine  21.9437 0.220911 8.48168
Spine1  8.2013 5.77349 -15.8146
HEad  -16.8839 -3.95823 -0.872676
LeftShoulder1  1.61305 -3.9264 -14.8594
LeftArm  -17.8284 -62.8581 -41.5054
LeftForeArm  -5.05187 -18.54 -4.0094
LeftHand  -0.018916 5.91961 2.37167
RightShoulder  0.834235 3.37601 4.22388
RightArm  -19.3815 71.2988 30.6882
RightForeArm  -16.1544 1.21095 1.10946
RightHand  -0.206473 2.90409 -3.11272
LeftUpLeg  -16.9827 6.81619 -4.876
LeftLeg  23.2526 -4.4967 -1.76737
LeftFoot  3.50851 -1.06726 8.01164
LeftToes  -4.03379e-008 1.61488e-010 -5.81581e-011
168
root  -56.1624 38.8364 11.8301 179.389 -73.5679 172.994
RightUpLeg  -19.8519 -1.08729 -9.95803
RightLeg  49.0338 1.31969 1.27702
RightFoot  -4.53288 -0.588588 9.36372
RightToes  -2.21189e-009 0 -3.6325e-017
Spine  22.3898 0.12044 8.72625
Spine1  8.36801 5.75779 -15.444
HEad  -17.7202 -4.37575 -0.795967
LeftShoulder1  1.59595 -3.72659 -15.3015
LeftArm  -17.0567 -65.9246 -39.904
LeftForeArm  -8.24782 -16.882 -3.98083
LeftHand  -0.0188611 6.69096 1.36652
RightShoulder  0.777593 3.76386 2.5702
RightArm  -24.3118 71.7688 26.5645
RightForeArm  -18.0581 -0.785919 0.271962
RightHand  -0.103957 1.97366 -1.80971
LeftUpLeg  -16.9456 7.27009 -4.53048
LeftLeg  22.305 -5.88562 -2.31236
LeftFoot  3.51477 -1.00109 7.50303
LeftToes  -4.03379e-008 1.61488e-010 -5.81581e-011
169
root  -56.4216 38.9414 11.4848 -179.153 -75.1684 172.671
RightUpLeg  -19.586 3.22788 -11.3107
RightLeg  40.2497 1.43304 1.02049
RightFoot  -4.23038 -0.559621 8.52822
RightToes  -2.21189e-009 0 -3.6325e-017
Spine  22.8987 -0.345171 8.98807
Spine1  7.77907 5.49049 -16.0076
HEad  -18.1284 -4.80934 -0.197649
LeftShoulder1  1.66909 -4.68471 -13.3829
LeftArm  -18.7216 -66.0927 -38.7898
LeftForeArm  -9.70121 -16.8666 -3.83805
LeftHand  -0.0192765 6.89209 1.25941
RightShoulder  0.772706 3.54119 2.8871
RightArm  -27.683 72.4386 23.0432
RightForeArm  -20.2967 -2.27012 0.00720406
RightHand  -0.0428702 1.46321 -0.874484
LeftUpLeg  -17.3177 6.72146 -4.38146
LeftLeg  21.6689 -7.05767 -2.78885
LeftFoot  3.53167 -1.01127 7.57055
LeftToes  -4.03379e-008 1.61488e-010 -5.81581e-011
170
root  -56.656 39.0498 11.1066 -176.523 -76.5903 170.968
RightUpLeg  -18.6229 9.40801 -13.1471
RightLeg  30.9546 1.77625 0.916405
RightFoot  -3.84565 -0.567324 8.23968
RightToes  -2.21189e-009 0 -3.6325e-017
Spine  22.7406 -0.451708 8.27946
Spine1  8.24027 5.07479 -14.9338
HEad  -18.7369 -4.91437 -0.707915
LeftShoulder1  1.67266 -4.68309 -13.4549
LeftArm  -19.9169 -67.4571 -36.8207
LeftForeArm  -10.5236 -16.3065 -3.76707
LeftHand  -0.0253451 6.92415 1.08239
RightShoulder  0.746254 3.66737 2.24468
RightArm  -30.7002 72.7562 20.2788
RightForeArm  -22.9649 -3.1121 -0.301517
RightHand  -0.0325086 1.54566 -0.683698
LeftUpLeg  -17.5186 6.13486 -4.44725
LeftLeg  20.9953 -7.88985 -3.09365
LeftFoot  3.76672 -1.04718 7.71162
LeftToes  -4.03379e-008 1.61488e-010 -5.81581e-011
171
root  -56.846 39.1199 10.6959 -173.618 -78.4087 168.806
RightUpLeg  -17.2549 16.4175 -14.9854
RightLeg  22.3806 2.45911 0.890386
RightFoot  -4.06647 -0.532404 7.92197
RightToes  -2.21189e-009 0 -3.6325e-017
Spine  22.4649 -0.763441 8.21267
Spine1  8.87363 4.71423 -14.5137
HEad  -18.8781 -5.2607 -0.841608
LeftShoulder1  1.65469 -4.7417 -13.0522
LeftArm  -21.5662 -68.3238 -35.4275
LeftForeArm  -12.4756 -16.4434 -3.67512
LeftHand  -0.0676188 7.28431 -1.69828
RightShoulder  0.735224 3.40444 2.50533
RightArm  -33.3628 72.8738 17.4647
RightForeArm  -23.4168 -3.10446 -0.479079
RightHand  0.0387844 1.61507 0.496239
LeftUpLeg  -17.7336 5.3592 -4.42748
LeftLeg  20.5722 -8.89404 -3.42005
LeftFoot  3.91503 -1.02053 7.43083
LeftToes  -4.03379e-008 1.61488e-010 -5.81581e-011
172
root  -57.0046 39.1883 10.2756 -170.504 -80.113 166.447
RightUpLeg  -16.7756 22.308 -16.1049
RightLeg  17.4345 3.4904 1.01592
RightFoot  -3.43359 -0.572582 7.93755
RightToes  -2.21189e-009 0 -3.6325e-017
Spine  22.1234 -1.07488 8.93435
Spine1  9.33778 4.63874 -14.8171
HEad  -18.5305 -6.13141 -0.591721
LeftShoulder1  1.71372 -5.16262 -12.7353
LeftArm  -22.3426 -69.3543 -34.218
LeftForeArm  -15.9863 -16.0573 -3.69495
LeftHand  -0.0751417 7.83709 -1.43366
RightShoulder  0.708769 3.03396 2.77412
RightArm  -34.728 71.9894 16.3119
RightForeArm  -25.045 -2.17087 -0.671414
RightHand  0.0849438 1.56479 1.27458
LeftUpLeg  -18.0086 4.63198 -4.24309
LeftLeg  20.0737 -9.98967 -3.73494
LeftFoot  4.13402 -1.00344 7.19042
LeftToes  -4.03379e-008 1.61488e-010 -5.81581e-011
173
root  -57.0989 39.2646 9.7887 -169.598 -81.5093 165.933
RightUpLeg  -16.4754 21.9861 -15.0594
RightLeg  17.3368 3.71695 0.974623
RightFoot  -3.25821 -0.54993 7.45579
RightToes  -2.21189e-009 0 -3.6325e-017
Spine  22.4676 -1.319 8.64508
Spine1  9.31847 4.08211 -13.9202
HEad  -18.5361 -5.17453 -0.914516
LeftShoulder1  1.64991 -5.26444 -11.6601
LeftArm  -24.5641 -68.8142 -33.0928
LeftForeArm  -15.7976 -16.3022 -3.35879
LeftHand  -0.0912693 7.75925 -2.2152
RightShoulder  0.739086 2.62756 4.136
RightArm  -35.5829 72.2203 16.1626
RightForeArm  -28.4675 -1.30709 -0.637485
RightHand  0.0653071 1.12726 1.06447
LeftUpLeg  -18.1225 3.65235 -3.46
LeftLeg  19.892 -10.3673 -3.81043
LeftFoot  4.2481 -0.940877 6.67419
LeftToes  -4.03379e-008 1.61488e-010 -5.81581e-011
